<mxfile host="app.diagrams.net" agent="Mozilla/5.0 (Windows NT 10.0; Win64; x64) AppleWebKit/537.36 (KHTML, like Gecko) Chrome/135.0.0.0 Safari/537.36" version="26.2.12">
  <diagram name="Page-1" id="fU7BCpl6mXzZDJkFP51K">
    <mxGraphModel dx="1428" dy="1954" grid="1" gridSize="10" guides="1" tooltips="1" connect="1" arrows="1" fold="1" page="1" pageScale="1" pageWidth="827" pageHeight="1169" math="0" shadow="0">
      <root>
        <mxCell id="0" />
        <mxCell id="1" parent="0" />
        <mxCell id="hSYeYCXfzHYsLcMzWhCX-23" value="VPC" style="sketch=0;outlineConnect=0;html=1;whiteSpace=wrap;fontSize=12;fontStyle=0;shape=mxgraph.aws4.group;grIcon=mxgraph.aws4.group_vpc;strokeColor=#6c8ebf;fillColor=#dae8fc;verticalAlign=top;align=left;spacingLeft=30;dashed=0;" vertex="1" parent="1">
          <mxGeometry x="59" y="-20" width="781" height="550" as="geometry" />
        </mxCell>
        <mxCell id="hSYeYCXfzHYsLcMzWhCX-46" value="" style="rounded=1;whiteSpace=wrap;html=1;fillColor=none;dashed=1;" vertex="1" parent="1">
          <mxGeometry x="580" y="195" width="210" height="60" as="geometry" />
        </mxCell>
        <mxCell id="hSYeYCXfzHYsLcMzWhCX-45" value="" style="rounded=1;whiteSpace=wrap;html=1;fillColor=none;dashed=1;" vertex="1" parent="1">
          <mxGeometry x="125" y="195" width="215" height="60" as="geometry" />
        </mxCell>
        <mxCell id="hSYeYCXfzHYsLcMzWhCX-21" value="" style="rounded=1;arcSize=10;dashed=1;strokeColor=#F59D56;fillColor=none;gradientColor=none;dashPattern=8 4;strokeWidth=2;" vertex="1" parent="1">
          <mxGeometry x="540" y="30" width="280" height="470" as="geometry" />
        </mxCell>
        <mxCell id="hSYeYCXfzHYsLcMzWhCX-20" value="" style="rounded=1;arcSize=10;dashed=1;strokeColor=#F59D56;fillColor=none;gradientColor=none;dashPattern=8 4;strokeWidth=2;" vertex="1" parent="1">
          <mxGeometry x="100" y="30" width="280" height="470" as="geometry" />
        </mxCell>
        <mxCell id="hSYeYCXfzHYsLcMzWhCX-2" value="" style="rounded=1;arcSize=10;dashed=0;fillColor=none;gradientColor=none;strokeWidth=2;" vertex="1" parent="1">
          <mxGeometry x="120" y="70" width="240" height="190" as="geometry" />
        </mxCell>
        <mxCell id="hSYeYCXfzHYsLcMzWhCX-4" value="" style="rounded=1;arcSize=10;dashed=0;fillColor=none;gradientColor=none;strokeWidth=2;" vertex="1" parent="1">
          <mxGeometry x="115" y="290" width="200" height="190" as="geometry" />
        </mxCell>
        <mxCell id="hSYeYCXfzHYsLcMzWhCX-8" value="10.0.0.0/16" style="text;html=1;align=center;verticalAlign=middle;resizable=0;points=[];autosize=1;strokeColor=none;fillColor=none;" vertex="1" parent="1">
          <mxGeometry x="110.01" y="-20" width="80" height="30" as="geometry" />
        </mxCell>
        <mxCell id="hSYeYCXfzHYsLcMzWhCX-9" value="" style="points=[];aspect=fixed;html=1;align=center;shadow=0;dashed=0;fillColor=#FF6A00;strokeColor=none;shape=mxgraph.alibaba_cloud.alb_application_load_balancer_01;" vertex="1" parent="1">
          <mxGeometry x="408.23" y="10" width="82.54" height="70" as="geometry" />
        </mxCell>
        <mxCell id="hSYeYCXfzHYsLcMzWhCX-10" value="Public Subnet AZA" style="text;html=1;align=center;verticalAlign=middle;resizable=0;points=[];autosize=1;strokeColor=none;fillColor=none;labelBackgroundColor=#1AEFFF;fontStyle=1" vertex="1" parent="1">
          <mxGeometry x="140" y="40" width="120" height="30" as="geometry" />
        </mxCell>
        <mxCell id="hSYeYCXfzHYsLcMzWhCX-11" value="Public Subnet AZB" style="text;html=1;align=center;verticalAlign=middle;resizable=0;points=[];autosize=1;strokeColor=none;fillColor=none;labelBackgroundColor=#1AEFFF;fontStyle=1" vertex="1" parent="1">
          <mxGeometry x="570" y="40" width="120" height="30" as="geometry" />
        </mxCell>
        <mxCell id="hSYeYCXfzHYsLcMzWhCX-13" value="Private Subnet AZA" style="text;html=1;align=center;verticalAlign=middle;resizable=0;points=[];autosize=1;strokeColor=none;fillColor=none;labelBackgroundColor=#1AEFFF;fontStyle=1" vertex="1" parent="1">
          <mxGeometry x="115" y="260" width="130" height="30" as="geometry" />
        </mxCell>
        <mxCell id="hSYeYCXfzHYsLcMzWhCX-14" value="" style="outlineConnect=0;dashed=0;verticalLabelPosition=bottom;verticalAlign=top;align=center;html=1;shape=mxgraph.aws3.ec2;fillColor=#F58534;gradientColor=none;" vertex="1" parent="1">
          <mxGeometry x="129.43" y="80" width="41.13" height="50" as="geometry" />
        </mxCell>
        <mxCell id="hSYeYCXfzHYsLcMzWhCX-15" value="" style="points=[];aspect=fixed;html=1;align=center;shadow=0;dashed=0;fillColor=#FF6A00;strokeColor=none;shape=mxgraph.alibaba_cloud.nat_gateway;" vertex="1" parent="1">
          <mxGeometry x="298.4" y="114.3" width="51.6" height="41.699999999999996" as="geometry" />
        </mxCell>
        <mxCell id="hSYeYCXfzHYsLcMzWhCX-16" value="" style="rounded=1;arcSize=10;dashed=0;fillColor=none;gradientColor=none;strokeWidth=2;" vertex="1" parent="1">
          <mxGeometry x="560" y="70" width="240" height="190" as="geometry" />
        </mxCell>
        <mxCell id="hSYeYCXfzHYsLcMzWhCX-17" value="" style="outlineConnect=0;dashed=0;verticalLabelPosition=bottom;verticalAlign=top;align=center;html=1;shape=mxgraph.aws3.internet_3;fillColor=#D2D3D3;gradientColor=none;" vertex="1" parent="1">
          <mxGeometry x="411.27" y="-140" width="79.5" height="54" as="geometry" />
        </mxCell>
        <mxCell id="hSYeYCXfzHYsLcMzWhCX-18" value="Bastian EC2" style="text;html=1;align=center;verticalAlign=middle;resizable=0;points=[];autosize=1;strokeColor=none;fillColor=none;" vertex="1" parent="1">
          <mxGeometry x="160" y="90" width="90" height="30" as="geometry" />
        </mxCell>
        <mxCell id="hSYeYCXfzHYsLcMzWhCX-19" value="" style="outlineConnect=0;dashed=0;verticalLabelPosition=bottom;verticalAlign=top;align=center;html=1;shape=mxgraph.aws3.ec2;fillColor=#F58534;gradientColor=none;" vertex="1" parent="1">
          <mxGeometry x="120" y="300" width="41.13" height="50" as="geometry" />
        </mxCell>
        <mxCell id="hSYeYCXfzHYsLcMzWhCX-24" value="" style="rounded=1;arcSize=10;dashed=0;fillColor=none;gradientColor=none;strokeWidth=2;" vertex="1" parent="1">
          <mxGeometry x="600" y="290" width="200" height="190" as="geometry" />
        </mxCell>
        <mxCell id="hSYeYCXfzHYsLcMzWhCX-25" value="Private Subnet AZB" style="text;html=1;align=center;verticalAlign=middle;resizable=0;points=[];autosize=1;strokeColor=none;fillColor=none;labelBackgroundColor=#1AEFFF;fontStyle=1" vertex="1" parent="1">
          <mxGeometry x="600" y="260" width="130" height="30" as="geometry" />
        </mxCell>
        <mxCell id="hSYeYCXfzHYsLcMzWhCX-26" value="SQL Lite EC2" style="text;html=1;align=center;verticalAlign=middle;resizable=0;points=[];autosize=1;strokeColor=none;fillColor=none;" vertex="1" parent="1">
          <mxGeometry x="155" y="310" width="100" height="30" as="geometry" />
        </mxCell>
        <mxCell id="hSYeYCXfzHYsLcMzWhCX-27" value="Availability Zone US East 1-A" style="text;html=1;align=center;verticalAlign=middle;resizable=0;points=[];autosize=1;strokeColor=none;fillColor=none;fontStyle=1" vertex="1" parent="1">
          <mxGeometry x="150" width="180" height="30" as="geometry" />
        </mxCell>
        <mxCell id="hSYeYCXfzHYsLcMzWhCX-28" value="Internet" style="text;html=1;align=center;verticalAlign=middle;resizable=0;points=[];autosize=1;strokeColor=none;fillColor=none;" vertex="1" parent="1">
          <mxGeometry x="490.77" y="-116" width="60" height="30" as="geometry" />
        </mxCell>
        <mxCell id="hSYeYCXfzHYsLcMzWhCX-29" value="" style="outlineConnect=0;dashed=0;verticalLabelPosition=bottom;verticalAlign=top;align=center;html=1;shape=mxgraph.aws3.ec2;fillColor=#F58534;gradientColor=none;" vertex="1" parent="1">
          <mxGeometry x="129.44" y="200" width="41.13" height="50" as="geometry" />
        </mxCell>
        <mxCell id="hSYeYCXfzHYsLcMzWhCX-30" value="" style="outlineConnect=0;dashed=0;verticalLabelPosition=bottom;verticalAlign=top;align=center;html=1;shape=mxgraph.aws3.ec2;fillColor=#F58534;gradientColor=none;" vertex="1" parent="1">
          <mxGeometry x="588.87" y="200" width="41.13" height="50" as="geometry" />
        </mxCell>
        <mxCell id="hSYeYCXfzHYsLcMzWhCX-31" value="Auto Scaled Application EC2" style="text;html=1;align=center;verticalAlign=middle;resizable=0;points=[];autosize=1;strokeColor=none;fillColor=none;" vertex="1" parent="1">
          <mxGeometry x="161.13" y="170" width="180" height="30" as="geometry" />
        </mxCell>
        <mxCell id="hSYeYCXfzHYsLcMzWhCX-32" value="Auto Scaled Application EC2" style="text;html=1;align=center;verticalAlign=middle;resizable=0;points=[];autosize=1;strokeColor=none;fillColor=none;" vertex="1" parent="1">
          <mxGeometry x="600" y="170" width="180" height="30" as="geometry" />
        </mxCell>
        <mxCell id="hSYeYCXfzHYsLcMzWhCX-33" value="" style="points=[];aspect=fixed;html=1;align=center;shadow=0;dashed=0;fillColor=#FF6A00;strokeColor=none;shape=mxgraph.alibaba_cloud.dns_domain_name_system;" vertex="1" parent="1">
          <mxGeometry x="270" y="-200" width="55.800000000000004" height="54.900000000000006" as="geometry" />
        </mxCell>
        <mxCell id="hSYeYCXfzHYsLcMzWhCX-34" value="" style="sketch=0;outlineConnect=0;fontColor=#232F3E;gradientColor=none;fillColor=#ED7100;strokeColor=none;dashed=0;verticalLabelPosition=bottom;verticalAlign=top;align=center;html=1;fontSize=12;fontStyle=0;aspect=fixed;pointerEvents=1;shape=mxgraph.aws4.auto_scaling2;" vertex="1" parent="1">
          <mxGeometry x="431.27" y="185.85" width="48" height="48" as="geometry" />
        </mxCell>
        <mxCell id="hSYeYCXfzHYsLcMzWhCX-35" value="10.0.1&lt;span style=&quot;color: rgba(0, 0, 0, 0); font-family: monospace; font-size: 0px; text-align: start;&quot;&gt;%3CmxGraphModel%3E%3Croot%3E%3CmxCell%20id%3D%220%22%2F%3E%3CmxCell%20id%3D%221%22%20parent%3D%220%22%2F%3E%3CmxCell%20id%3D%222%22%20value%3D%2210.0.0.0%2F16%22%20style%3D%22text%3Bhtml%3D1%3Balign%3Dcenter%3BverticalAlign%3Dmiddle%3Bresizable%3D0%3Bpoints%3D%5B%5D%3Bautosize%3D1%3BstrokeColor%3Dnone%3BfillColor%3Dnone%3B%22%20vertex%3D%221%22%20parent%3D%221%22%3E%3CmxGeometry%20x%3D%22110%22%20y%3D%22-10%22%20width%3D%2280%22%20height%3D%2230%22%20as%3D%22geometry%22%2F%3E%3C%2FmxCell%3E%3C%2Froot%3E%3C%2FmxGraphModel%3E&lt;/span&gt;.0/16" style="text;html=1;align=center;verticalAlign=middle;resizable=0;points=[];autosize=1;strokeColor=none;fillColor=none;labelBackgroundColor=#1AEFFF;fontStyle=1" vertex="1" parent="1">
          <mxGeometry x="270" y="40" width="80" height="30" as="geometry" />
        </mxCell>
        <mxCell id="hSYeYCXfzHYsLcMzWhCX-36" value="10.0.2&lt;span style=&quot;color: rgba(0, 0, 0, 0); font-family: monospace; font-size: 0px; text-align: start;&quot;&gt;%3CmxGraphModel%3E%3Croot%3E%3CmxCell%20id%3D%220%22%2F%3E%3CmxCell%20id%3D%221%22%20parent%3D%220%22%2F%3E%3CmxCell%20id%3D%222%22%20value%3D%2210.0.0.0%2F16%22%20style%3D%22text%3Bhtml%3D1%3Balign%3Dcenter%3BverticalAlign%3Dmiddle%3Bresizable%3D0%3Bpoints%3D%5B%5D%3Bautosize%3D1%3BstrokeColor%3Dnone%3BfillColor%3Dnone%3B%22%20vertex%3D%221%22%20parent%3D%221%22%3E%3CmxGeometry%20x%3D%22110%22%20y%3D%22-10%22%20width%3D%2280%22%20height%3D%2230%22%20as%3D%22geometry%22%2F%3E%3C%2FmxCell%3E%3C%2Froot%3E%3C%2FmxGraphModel%32&lt;/span&gt;.0/16" style="text;html=1;align=center;verticalAlign=middle;resizable=0;points=[];autosize=1;strokeColor=none;fillColor=none;labelBackgroundColor=#1AEFFF;fontStyle=1" vertex="1" parent="1">
          <mxGeometry x="235" y="260" width="80" height="30" as="geometry" />
        </mxCell>
        <mxCell id="hSYeYCXfzHYsLcMzWhCX-37" value="10.0.3&lt;span style=&quot;color: rgba(0, 0, 0, 0); font-family: monospace; font-size: 0px; text-align: start;&quot;&gt;%3CmxGraphModel%3E%3Croot%3E%3CmxCell%20id%3D%220%22%2F%3E%3CmxCell%20id%3D%221%22%20parent%3D%220%22%2F%3E%3CmxCell%20id%3D%222%22%20value%3D%2210.0.0.0%2F16%22%20style%3D%22text%3Bhtml%3D1%3Balign%3Dcenter%3BverticalAlign%3Dmiddle%3Bresizable%3D0%3Bpoints%3D%5B%5D%3Bautosize%3D1%3BstrokeColor%3Dnone%3BfillColor%3Dnone%3B%22%20vertex%3D%221%22%20parent%3D%221%22%3E%3CmxGeometry%20x%3D%22110%22%20y%3D%22-10%22%20width%3D%2280%22%20height%3D%2230%22%20as%3D%22geometry%22%2F%3E%3C%2FmxCell%3E%3C%2Froot%3E%3C%2FmxGraphModel%32&lt;/span&gt;.0/16" style="text;html=1;align=center;verticalAlign=middle;resizable=0;points=[];autosize=1;strokeColor=none;fillColor=none;labelBackgroundColor=#1AEFFF;fontStyle=1" vertex="1" parent="1">
          <mxGeometry x="700" y="40" width="80" height="30" as="geometry" />
        </mxCell>
        <mxCell id="hSYeYCXfzHYsLcMzWhCX-38" value="10.0.4&lt;span style=&quot;color: rgba(0, 0, 0, 0); font-family: monospace; font-size: 0px; text-align: start;&quot;&gt;%3CmxGraphModel%3E%3Croot%3E%3CmxCell%20id%3D%220%22%2F%3E%3CmxCell%20id%3D%221%22%20parent%3D%220%22%2F%3E%3CmxCell%20id%3D%222%22%20value%3D%2210.0.0.0%2F16%22%20style%3D%22text%3Bhtml%3D1%3Balign%3Dcenter%3BverticalAlign%3Dmiddle%3Bresizable%3D0%3Bpoints%3D%5B%5D%3Bautosize%3D1%3BstrokeColor%3Dnone%3BfillColor%3Dnone%3B%22%20vertex%3D%221%22%20parent%3D%221%22%3E%3CmxGeometry%20x%3D%22110%22%20y%3D%22-10%22%20width%3D%2280%22%20height%3D%2230%22%20as%3D%22geometry%22%2F%3E%3C%2FmxCell%3E%3C%2Froot%3E%3C%2FmxGraphModel%3&lt;/span&gt;.0/16" style="text;html=1;align=center;verticalAlign=middle;resizable=0;points=[];autosize=1;strokeColor=none;fillColor=none;labelBackgroundColor=light-dark(#1AEFFF,#EDEDED);fontStyle=1" vertex="1" parent="1">
          <mxGeometry x="720" y="260" width="80" height="30" as="geometry" />
        </mxCell>
        <mxCell id="hSYeYCXfzHYsLcMzWhCX-39" value="Availability Zone US East 1-B" style="text;html=1;align=center;verticalAlign=middle;resizable=0;points=[];autosize=1;strokeColor=none;fillColor=none;fontStyle=1" vertex="1" parent="1">
          <mxGeometry x="590" width="180" height="30" as="geometry" />
        </mxCell>
        <mxCell id="hSYeYCXfzHYsLcMzWhCX-40" value="" style="outlineConnect=0;dashed=0;verticalLabelPosition=bottom;verticalAlign=top;align=center;html=1;shape=mxgraph.aws3.internet_gateway;fillColor=#F58536;gradientColor=none;" vertex="1" parent="1">
          <mxGeometry x="357.27" y="-50" width="54" height="50" as="geometry" />
        </mxCell>
        <mxCell id="hSYeYCXfzHYsLcMzWhCX-47" value="" style="outlineConnect=0;dashed=0;verticalLabelPosition=bottom;verticalAlign=top;align=center;html=1;shape=mxgraph.aws3.ec2;fillColor=#F58534;gradientColor=none;" vertex="1" parent="1">
          <mxGeometry x="277.33" y="200" width="41.13" height="50" as="geometry" />
        </mxCell>
        <mxCell id="hSYeYCXfzHYsLcMzWhCX-48" value="" style="outlineConnect=0;dashed=0;verticalLabelPosition=bottom;verticalAlign=top;align=center;html=1;shape=mxgraph.aws3.ec2;fillColor=#F58534;gradientColor=none;" vertex="1" parent="1">
          <mxGeometry x="730" y="200" width="41.13" height="50" as="geometry" />
        </mxCell>
        <mxCell id="hSYeYCXfzHYsLcMzWhCX-49" value="NAT GW" style="text;html=1;align=center;verticalAlign=middle;resizable=0;points=[];autosize=1;strokeColor=none;fillColor=none;fontStyle=1" vertex="1" parent="1">
          <mxGeometry x="287.27" y="90" width="70" height="30" as="geometry" />
        </mxCell>
      </root>
    </mxGraphModel>
  </diagram>
</mxfile>
